<?xml version="1.0" standalone="no"?>
<!DOCTYPE svg PUBLIC "-//W3C//DTD SVG 20010904//EN"
 "http://www.w3.org/TR/2001/REC-SVG-20010904/DTD/svg10.dtd">
<svg version="1.0" xmlns="http://www.w3.org/2000/svg"
 width="2081.000000pt" height="2081.000000pt" viewBox="0 0 2081.000000 2081.000000"
 preserveAspectRatio="xMidYMid meet">
<metadata>
Created by potrace 1.14, written by Peter Selinger 2001-2017
</metadata>
<g transform="translate(0.000000,2081.000000) scale(0.100000,-0.100000)"
fill="#000000" stroke="none">
<path d="M12320 20563 c-108 -21 -231 -121 -283 -230 l-32 -68 -3 -540 c-1
-297 -3 -621 -5 -721 l-2 -181 -29 -42 c-22 -31 -59 -60 -139 -107 -60 -35
-111 -64 -114 -64 -3 0 -18 -9 -34 -21 -16 -11 -29 -17 -29 -12 0 4 -4 3 -8
-2 -6 -10 -34 -27 -132 -82 -19 -11 -59 -34 -88 -52 -29 -17 -57 -31 -62 -31
-6 0 -10 -4 -10 -9 0 -8 -40 -27 -47 -22 -2 0 -12 -8 -23 -19 -11 -11 -27 -20
-35 -20 -8 0 -15 -4 -15 -10 0 -5 -4 -10 -9 -10 -5 0 -64 -32 -132 -72 -68
-39 -139 -79 -156 -90 -18 -10 -48 -27 -67 -37 -19 -11 -54 -32 -78 -47 -23
-15 -49 -27 -55 -27 -7 0 -13 -4 -13 -9 0 -5 -8 -12 -17 -15 -10 -4 -71 -38
-136 -75 -66 -37 -123 -68 -128 -68 -5 0 -9 -4 -9 -8 0 -8 -64 -42 -76 -41 -4
0 -10 -3 -13 -9 -5 -7 -27 -22 -123 -77 -9 -5 -41 -23 -70 -39 -29 -15 -60
-34 -69 -42 -8 -8 -23 -14 -31 -14 -9 0 -18 -4 -20 -8 -1 -5 -23 -20 -48 -34
-73 -41 -554 -317 -570 -328 -23 -14 -120 -70 -170 -98 -25 -14 -62 -36 -82
-49 -21 -12 -42 -23 -48 -23 -5 0 -10 -5 -10 -11 0 -5 -4 -7 -10 -4 -5 3 -10
2 -10 -3 0 -5 -8 -12 -17 -15 -10 -4 -36 -17 -58 -30 -57 -35 -161 -95 -225
-130 -30 -16 -62 -35 -70 -41 -8 -7 -28 -18 -45 -26 -16 -8 -32 -18 -35 -21
-5 -7 -91 -53 -100 -54 -3 0 -9 -3 -15 -6 -22 -13 -102 -5 -140 14 -25 12
-199 178 -453 431 -227 226 -418 416 -425 421 -25 19 -58 35 -105 52 -54 19
-219 22 -255 5 -34 -16 -61 -25 -69 -24 -5 1 -8 -2 -8 -7 0 -5 -8 -12 -18 -15
-22 -7 -112 -93 -105 -100 3 -3 -2 -8 -11 -12 -9 -3 -13 -10 -10 -15 3 -5 1
-9 -4 -9 -17 0 -46 -114 -48 -188 -3 -80 16 -161 47 -204 10 -15 19 -31 19
-35 0 -4 224 -231 498 -505 450 -451 514 -521 529 -578 9 -32 8 -4097 -1
-4140 -18 -92 -64 -133 -284 -250 -26 -13 -49 -27 -52 -30 -9 -10 -215 -124
-219 -121 -2 1 -7 -2 -10 -7 -3 -5 -125 -77 -271 -161 -146 -83 -272 -155
-280 -161 -17 -10 -487 -283 -537 -311 -17 -10 -49 -29 -70 -42 -21 -13 -45
-27 -53 -30 -8 -4 -33 -18 -55 -31 -22 -14 -56 -32 -75 -42 -19 -10 -69 -39
-111 -65 -42 -25 -80 -48 -85 -50 -5 -2 -56 -31 -112 -64 -57 -33 -120 -69
-140 -80 -20 -11 -39 -23 -42 -26 -3 -4 -15 -9 -27 -13 -13 -4 -23 -12 -23
-17 0 -6 -4 -8 -9 -4 -5 3 -12 1 -15 -4 -4 -5 -37 -26 -74 -47 -37 -20 -141
-81 -232 -134 -91 -53 -190 -110 -220 -127 -30 -16 -143 -81 -250 -144 -107
-63 -198 -113 -202 -111 -5 1 -8 -3 -8 -8 0 -6 -4 -10 -9 -10 -5 0 -28 -12
-51 -27 -23 -16 -45 -28 -49 -28 -3 -1 -25 -13 -48 -28 -24 -15 -45 -27 -48
-27 -3 0 -24 -12 -46 -26 -23 -14 -62 -37 -87 -51 -53 -29 -119 -78 -144 -108
-25 -28 -68 -95 -62 -95 2 0 0 -9 -6 -21 -6 -11 -14 -30 -18 -42 -4 -12 -7
-1005 -9 -2207 -2 -2457 -1 -2354 -19 -2395 -15 -37 -49 -77 -58 -68 -3 3 -6
1 -6 -6 0 -15 -25 -41 -39 -41 -6 0 -11 -7 -11 -16 0 -9 -9 -18 -20 -21 -11
-3 -20 -12 -20 -19 0 -8 -7 -14 -17 -14 -9 0 -14 -3 -10 -6 7 -7 -100 -114
-115 -114 -5 0 -7 -4 -4 -8 6 -9 -29 -42 -44 -42 -6 0 -10 -4 -10 -9 0 -12
-59 -71 -71 -71 -5 0 -9 -4 -9 -8 0 -12 -139 -152 -150 -152 -6 0 -10 -4 -10
-10 0 -15 -33 -50 -42 -44 -4 3 -8 0 -8 -6 0 -15 -46 -60 -54 -53 -3 4 -6 1
-6 -5 0 -12 -47 -62 -53 -56 -2 2 -10 -7 -17 -21 -7 -14 -20 -25 -28 -25 -9 0
-13 -3 -10 -6 8 -7 -45 -62 -54 -57 -5 2 -8 0 -8 -6 0 -14 -108 -120 -115
-113 -3 3 -5 0 -5 -7 0 -6 -11 -24 -25 -39 -14 -15 -37 -52 -52 -82 -26 -50
-28 -65 -28 -170 0 -105 2 -120 27 -171 50 -100 136 -175 242 -209 91 -29 230
-15 320 33 22 12 182 163 355 335 173 171 318 312 323 312 4 0 8 4 8 9 0 15
45 61 59 61 7 0 10 4 6 9 -3 5 4 12 15 16 11 3 20 10 20 15 0 11 110 120 122
120 4 0 8 4 8 10 0 5 21 16 47 23 65 19 127 7 205 -40 35 -22 71 -43 78 -47 8
-4 24 -12 35 -19 11 -7 71 -41 133 -75 61 -35 112 -69 112 -75 0 -5 3 -7 7 -4
3 4 17 0 29 -8 13 -8 43 -26 66 -39 24 -13 157 -90 297 -170 139 -80 257 -146
262 -146 5 0 9 -4 9 -9 0 -5 8 -11 18 -14 9 -4 35 -17 57 -30 59 -36 166 -98
200 -116 43 -23 159 -94 165 -100 3 -3 11 -7 19 -9 8 -2 26 -11 40 -21 14 -10
73 -44 131 -77 58 -32 107 -62 108 -66 2 -4 8 -8 13 -8 6 0 54 -25 107 -56 53
-31 112 -65 130 -75 17 -11 49 -29 70 -41 20 -12 61 -35 91 -52 29 -17 70 -41
90 -53 20 -12 50 -29 66 -37 17 -9 37 -20 45 -26 8 -5 74 -43 145 -84 72 -42
136 -80 143 -86 6 -6 12 -8 12 -5 0 4 12 -3 26 -14 15 -12 33 -21 40 -21 8 0
14 -4 14 -10 0 -5 6 -10 13 -10 6 0 40 -18 75 -40 34 -22 65 -40 67 -40 10 0
181 -104 187 -114 4 -6 8 -8 8 -4 0 4 28 -9 62 -30 35 -21 87 -51 116 -67 28
-15 52 -31 52 -35 0 -4 11 -20 25 -36 13 -15 22 -30 20 -32 -2 -3 1 -14 7 -25
8 -15 12 -228 13 -717 1 -382 5 -708 9 -723 13 -55 62 -130 119 -183 32 -30
65 -54 73 -54 8 0 14 -4 14 -10 0 -5 8 -10 18 -10 10 0 23 -5 30 -12 19 -19
191 -20 253 -2 90 27 175 93 222 174 55 95 55 100 55 837 0 607 2 684 17 719
18 44 57 89 95 108 37 19 93 51 139 80 22 15 43 26 46 26 3 0 31 16 61 35 30
19 56 35 59 35 3 0 26 13 52 29 160 96 459 265 466 263 4 -1 7 2 7 6 0 4 22
19 50 33 27 13 50 27 50 32 0 4 4 7 9 7 9 0 281 155 363 206 21 13 38 21 38
17 0 -5 4 -3 8 3 10 15 112 75 112 66 0 -4 4 -2 8 3 6 9 111 71 272 162 19 11
69 40 110 65 41 24 82 47 90 51 8 4 33 18 55 32 22 14 57 33 78 42 20 10 37
21 37 25 0 5 7 8 15 8 8 0 15 5 15 11 0 5 4 8 9 5 5 -3 14 1 21 9 7 8 16 15
21 15 5 0 28 12 52 27 23 14 67 40 97 56 30 16 62 35 70 42 18 14 52 29 63 27
4 -1 7 2 7 7 0 4 26 22 58 40 31 17 75 42 97 56 22 13 54 31 70 39 17 9 64 36
105 61 41 25 91 53 110 63 19 9 37 20 40 23 11 12 328 189 339 189 6 0 11 4
11 10 0 17 73 42 122 41 26 0 63 -7 82 -15 36 -15 556 -525 556 -545 0 -6 4
-10 8 -8 4 1 101 -91 215 -205 226 -225 261 -250 377 -269 128 -20 246 13 339
96 39 34 101 127 101 150 0 8 4 15 8 15 4 0 8 8 9 18 0 9 4 44 7 77 8 74 -8
154 -42 220 -19 37 -175 200 -583 610 -521 524 -557 563 -568 607 -16 66 -16
4110 0 4173 6 24 25 60 43 79 26 29 327 211 596 359 30 17 94 54 142 83 47 29
89 50 92 47 3 -4 6 -2 6 4 0 5 18 18 40 29 22 10 40 22 40 27 0 4 5 7 10 7 8
0 118 60 200 110 58 35 153 90 155 90 2 0 48 27 103 59 55 33 103 57 106 53 3
-3 6 -1 6 5 0 10 54 42 127 77 13 6 23 14 23 19 0 4 4 7 9 7 8 0 137 72 181
100 8 6 31 18 50 28 19 9 37 20 40 23 6 8 81 51 140 81 25 13 47 26 50 29 3 3
30 20 61 36 32 17 68 38 80 46 13 8 40 24 59 34 19 10 78 44 130 75 52 31 115
68 140 82 25 15 53 29 63 33 9 3 17 10 17 15 0 5 5 6 10 3 6 -3 10 -1 10 4 0
6 6 11 14 11 8 0 21 6 28 13 8 6 29 20 48 31 64 34 265 150 290 166 8 6 31 18
50 28 19 9 37 19 40 22 5 6 344 202 550 319 161 91 229 164 269 290 8 23 11
705 11 2281 0 2030 2 2252 16 2301 15 52 38 76 583 622 311 313 572 575 579
582 7 8 25 40 39 72 38 83 43 203 13 293 -31 93 -91 168 -165 207 -16 9 -32
19 -35 23 -9 13 -104 33 -165 35 -125 5 -215 -35 -324 -142 -42 -41 -89 -86
-104 -99 -16 -13 -27 -24 -25 -24 3 0 -45 -49 -106 -110 -60 -60 -114 -110
-119 -110 -6 0 -8 -2 -5 -5 5 -5 -206 -219 -233 -236 -8 -5 -11 -9 -7 -9 7 0
-162 -167 -183 -181 -8 -5 -11 -9 -8 -9 4 0 -25 -31 -64 -70 -52 -51 -84 -74
-120 -86 -88 -29 -113 -19 -435 173 -68 40 -125 73 -127 73 -3 0 -33 17 -67
38 -35 21 -74 43 -88 50 -14 7 -41 22 -61 35 -20 12 -103 60 -184 107 -80 47
-168 98 -193 113 -26 15 -55 31 -64 34 -10 3 -18 10 -18 15 0 5 -4 7 -9 4 -5
-3 -14 1 -21 9 -7 8 -16 15 -21 15 -5 0 -33 16 -63 35 -30 19 -58 35 -61 35
-3 0 -29 15 -58 33 -29 18 -69 41 -89 52 -21 11 -38 23 -38 27 0 5 -3 7 -7 6
-5 -1 -39 15 -77 37 -37 22 -91 53 -120 69 -28 16 -69 40 -91 53 -22 12 -55
30 -72 40 -18 9 -33 20 -33 25 0 4 -6 8 -12 8 -7 0 -50 23 -96 50 -46 28 -85
50 -87 50 -3 0 -33 17 -67 38 -35 21 -71 41 -80 45 -10 3 -18 10 -18 15 0 5
-6 9 -12 9 -13 0 -241 132 -265 153 -7 5 -17 10 -23 10 -6 0 -23 9 -38 19 -22
15 -185 110 -382 222 -14 8 -27 16 -30 19 -3 3 -16 11 -30 18 -62 30 -156 86
-162 96 -5 6 -8 7 -8 1 0 -7 -3 -7 -8 0 -7 10 -26 21 -126 74 -72 38 -142 108
-155 156 -7 27 -11 265 -11 725 -1 582 -3 691 -16 725 -8 22 -16 45 -18 50 -5
20 -41 75 -48 75 -5 0 -8 6 -8 13 -1 13 -82 80 -122 101 -65 34 -194 52 -268
39z m217 -2560 c43 -25 94 -54 113 -65 19 -11 80 -46 135 -78 55 -32 116 -67
136 -78 77 -43 84 -47 89 -52 5 -5 24 -16 88 -51 20 -11 51 -28 67 -38 17 -10
46 -27 65 -38 19 -11 55 -32 80 -47 25 -15 53 -29 63 -33 9 -3 17 -9 17 -14 0
-5 5 -9 11 -9 6 0 65 -32 132 -71 67 -40 142 -83 167 -97 25 -14 61 -35 80
-46 19 -12 47 -28 63 -35 15 -8 27 -18 27 -23 0 -5 4 -7 8 -4 5 3 25 -6 45
-19 20 -14 41 -25 46 -25 6 0 11 -4 11 -10 0 -5 5 -10 11 -10 8 0 261 -143
319 -181 8 -5 23 -12 33 -15 9 -4 17 -11 17 -17 0 -6 2 -8 5 -5 5 5 206 -109
233 -132 6 -6 12 -8 12 -5 0 4 13 -3 29 -14 16 -12 32 -21 36 -21 4 0 20 -10
37 -21 16 -12 48 -31 71 -44 44 -23 151 -84 202 -116 17 -10 37 -22 45 -26 8
-4 38 -20 65 -36 28 -17 65 -38 83 -48 17 -11 47 -27 65 -38 17 -10 66 -38
107 -61 41 -24 140 -81 220 -128 80 -46 174 -100 210 -120 36 -19 67 -38 70
-41 3 -4 27 -18 53 -31 58 -30 100 -70 123 -118 16 -34 17 -179 17 -2042 0
-1103 -3 -2026 -7 -2052 -6 -37 -16 -56 -50 -90 -37 -38 -174 -123 -288 -180
-20 -10 -40 -22 -43 -28 -4 -6 -11 -8 -16 -5 -5 4 -9 2 -9 -3 0 -8 -50 -36
-59 -32 -2 1 -7 -2 -10 -7 -6 -9 -129 -83 -138 -83 -3 0 -17 -8 -31 -19 -15
-10 -47 -29 -72 -43 -25 -14 -65 -37 -90 -52 -25 -15 -57 -32 -72 -39 -16 -6
-28 -15 -28 -19 0 -4 -4 -8 -9 -8 -5 0 -44 -20 -85 -45 -42 -25 -81 -45 -86
-45 -6 0 -10 -4 -10 -10 0 -5 -6 -10 -14 -10 -7 0 -25 -9 -39 -20 -14 -11 -30
-20 -36 -20 -7 0 -21 -8 -32 -19 -11 -10 -43 -30 -72 -45 -29 -15 -68 -36 -87
-47 -172 -102 -340 -197 -340 -191 0 4 -4 2 -8 -5 -7 -11 -88 -59 -282 -168
-41 -23 -105 -61 -142 -83 -38 -23 -68 -38 -68 -34 0 4 -4 2 -8 -4 -10 -15
-112 -75 -112 -66 0 4 -4 2 -8 -4 -4 -6 -43 -31 -87 -56 -44 -25 -109 -62
-145 -83 -36 -21 -83 -48 -105 -59 -22 -12 -42 -24 -45 -27 -3 -4 -36 -24 -75
-44 -38 -21 -81 -46 -95 -55 -14 -10 -35 -21 -47 -24 -13 -4 -23 -12 -23 -17
0 -5 -4 -9 -9 -9 -9 0 -361 -201 -386 -219 -5 -5 -41 -25 -80 -46 -38 -21 -73
-43 -77 -49 -4 -6 -8 -7 -8 -2 0 4 -12 1 -26 -9 -36 -23 -112 -23 -166 0 -23
11 -45 22 -48 25 -6 6 -29 19 -110 63 -30 17 -73 42 -95 56 -22 13 -58 35 -80
47 -22 11 -54 30 -72 40 -107 63 -223 130 -253 146 -39 21 -73 41 -80 48 -3 3
-23 14 -45 26 -60 31 -429 246 -435 253 -3 3 -10 7 -17 8 -7 2 -37 19 -67 38
-30 19 -58 35 -61 35 -3 0 -24 12 -48 27 -23 14 -67 40 -97 56 -30 17 -58 35
-62 41 -5 7 -8 7 -8 1 0 -7 -3 -7 -8 0 -4 6 -32 23 -62 39 -30 16 -57 32 -60
36 -3 3 -20 12 -37 19 -18 8 -33 17 -33 22 0 5 -4 9 -10 9 -5 0 -86 45 -181
100 -94 55 -173 100 -174 100 -3 0 -320 184 -345 200 -26 16 -123 71 -175 99
-27 14 -51 29 -53 34 -2 4 -10 7 -18 7 -8 0 -14 5 -14 10 0 6 -5 10 -10 10 -6
0 -65 32 -133 71 -131 77 -166 97 -224 130 -21 12 -42 25 -48 29 -5 4 -37 22
-70 40 -54 30 -140 79 -183 105 -73 43 -92 60 -116 105 l-28 51 0 2022 c0
1858 2 2026 17 2064 16 39 58 85 101 109 10 6 35 19 54 30 19 10 42 24 50 30
8 6 40 25 70 41 81 44 124 69 169 97 22 15 43 26 46 26 3 0 24 12 48 27 23 14
67 40 97 56 30 16 62 36 71 43 8 8 19 14 23 14 4 0 56 29 116 64 60 35 111 62
114 58 3 -3 6 0 6 7 0 6 10 16 23 21 12 6 29 14 37 20 8 5 60 35 115 66 109
61 199 114 312 181 40 24 77 43 83 43 5 0 10 5 10 10 0 6 9 10 20 10 11 0 20
5 20 10 0 6 7 10 15 10 8 0 15 4 15 9 0 5 9 12 20 16 10 3 107 57 215 120 107
62 195 111 195 107 0 -4 4 -2 8 4 6 10 395 239 500 295 18 9 39 22 46 28 7 6
16 8 19 4 4 -3 7 -2 7 4 0 9 35 30 54 31 5 0 12 5 15 10 3 5 24 20 46 32 59
34 127 72 150 84 11 6 22 13 25 16 3 3 19 12 35 21 17 9 86 48 153 88 68 39
128 71 133 71 5 0 9 4 9 9 0 5 8 11 18 14 9 4 40 20 67 37 28 17 66 38 85 48
19 9 37 20 40 23 7 9 91 52 115 60 56 18 113 7 192 -38z m-4031 -7005 c22 -14
46 -27 54 -31 8 -4 22 -11 30 -17 37 -24 151 -90 155 -90 3 0 24 -12 48 -27
23 -15 58 -35 77 -45 19 -10 44 -23 55 -30 52 -34 126 -78 130 -78 4 0 118
-67 155 -90 8 -6 24 -14 35 -20 11 -5 47 -25 80 -45 33 -20 68 -38 78 -42 9
-3 17 -9 17 -14 0 -5 4 -9 9 -9 6 0 88 -46 183 -102 95 -56 190 -109 210 -120
20 -10 40 -22 43 -28 4 -6 11 -8 16 -5 5 4 9 2 9 -3 0 -5 8 -12 18 -16 9 -3
24 -10 32 -15 31 -21 172 -101 178 -101 3 0 13 -6 21 -14 9 -7 41 -27 71 -43
143 -79 296 -168 302 -177 3 -5 14 -11 24 -12 9 -2 20 -8 24 -14 4 -7 11 -11
16 -11 8 0 117 -61 174 -98 14 -9 50 -29 80 -45 30 -16 66 -38 79 -48 13 -10
28 -18 33 -18 5 0 34 -16 64 -35 30 -19 56 -35 59 -35 9 0 110 -64 117 -74 4
-6 8 -8 8 -4 0 3 48 -22 108 -56 59 -34 118 -69 132 -77 14 -8 28 -18 31 -22
3 -5 9 -8 13 -8 12 1 76 -33 76 -41 0 -4 6 -8 14 -8 8 0 21 -6 28 -12 7 -7 27
-20 43 -28 17 -8 48 -26 70 -40 22 -13 51 -30 64 -37 107 -58 179 -109 201
-141 l25 -37 3 -2035 c2 -1388 0 -2046 -8 -2070 -17 -58 -60 -95 -216 -184
-82 -48 -156 -90 -164 -96 -8 -5 -37 -21 -65 -36 -27 -14 -56 -31 -63 -36 -14
-12 -84 -52 -122 -71 -14 -6 -27 -14 -30 -17 -7 -8 -150 -90 -157 -90 -3 0
-17 -8 -31 -19 -15 -10 -47 -29 -72 -43 -25 -14 -111 -64 -192 -110 -80 -47
-152 -88 -160 -92 -7 -4 -22 -12 -33 -19 -11 -7 -51 -30 -90 -52 -38 -21 -72
-41 -75 -44 -5 -6 -100 -58 -137 -76 -13 -5 -23 -13 -23 -17 0 -5 -5 -8 -10
-8 -6 0 -29 -11 -51 -26 -48 -30 -99 -59 -154 -88 -22 -12 -42 -23 -45 -26
-10 -10 -153 -90 -161 -90 -5 0 -9 -4 -9 -10 0 -5 -4 -10 -10 -10 -5 0 -47
-23 -94 -50 -47 -27 -89 -50 -95 -50 -6 0 -11 -4 -11 -8 0 -4 -30 -23 -67 -42
-38 -19 -70 -38 -73 -41 -7 -9 -69 -40 -76 -38 -4 0 -10 -3 -13 -8 -3 -5 -40
-28 -81 -53 -41 -24 -108 -63 -148 -87 -40 -24 -75 -43 -78 -43 -3 0 -18 -8
-32 -19 -15 -10 -47 -29 -72 -43 -25 -14 -72 -40 -105 -58 -33 -18 -68 -40
-79 -49 -10 -9 -21 -16 -25 -15 -3 1 -22 -9 -41 -21 -19 -12 -60 -35 -90 -51
-30 -16 -57 -31 -60 -35 -11 -12 -80 -50 -80 -44 0 3 -15 -5 -32 -19 -18 -13
-62 -39 -98 -57 -61 -31 -108 -39 -160 -26 -23 5 -104 49 -111 59 -3 5 -9 9
-13 9 -7 -2 -69 29 -76 38 -3 3 -21 14 -40 25 -47 25 -88 48 -195 111 -95 56
-130 76 -232 132 -35 19 -63 40 -63 46 0 5 -3 8 -6 5 -7 -7 -555 307 -566 324
-4 7 -8 10 -8 6 0 -4 -17 2 -37 14 -21 12 -60 34 -88 50 -27 16 -68 40 -90 54
-22 13 -56 32 -75 42 -19 9 -37 20 -40 23 -3 3 -12 8 -20 12 -8 4 -36 19 -62
34 -104 61 -204 118 -213 122 -5 2 -29 17 -52 32 -23 16 -44 29 -47 29 -3 0
-51 27 -107 60 -55 33 -105 60 -109 60 -5 0 -10 3 -12 8 -1 4 -21 16 -43 28
-22 11 -67 37 -100 56 -72 42 -242 141 -305 176 -25 14 -57 32 -72 41 -14 9
-57 34 -95 55 -37 22 -71 44 -75 50 -4 6 -8 8 -8 4 0 -4 -44 19 -97 51 -54 32
-118 69 -143 83 -151 84 -317 183 -332 198 -9 10 -14 21 -11 24 4 3 2 6 -4 6
-6 0 -18 18 -27 40 -15 37 -16 228 -16 2060 0 1832 1 2023 16 2060 9 22 20 40
25 40 5 0 9 6 9 13 0 8 30 31 67 53 37 21 74 44 84 49 9 6 38 22 65 37 27 16
67 39 89 52 22 14 60 35 85 48 25 13 50 27 55 31 6 4 44 27 85 51 41 24 131
76 200 116 68 40 130 73 137 73 7 0 11 2 8 5 -5 6 179 112 194 112 6 0 11 4
11 8 0 4 26 21 58 37 31 16 59 31 62 35 3 3 32 21 65 40 87 48 111 62 200 115
44 27 86 48 93 48 6 0 12 4 12 9 0 5 12 14 28 20 15 7 45 23 67 37 67 41 119
71 148 83 15 7 27 16 27 20 0 4 5 8 11 8 5 0 26 11 46 25 20 13 40 22 45 19 4
-3 8 -1 8 4 0 5 17 17 38 28 20 10 56 31 79 47 23 15 44 27 46 27 2 0 44 23
93 51 142 82 145 84 234 136 47 27 97 57 113 67 15 10 27 15 27 10 0 -4 10 2
23 13 24 22 147 91 161 91 5 0 12 4 15 9 9 12 197 123 209 123 6 0 12 3 14 8
2 4 91 57 198 119 107 61 211 120 230 131 74 44 96 53 135 59 22 3 42 7 43 8
6 5 86 -31 128 -57z"/>
</g>
</svg>
